solid LeftFinger
   facet normal -1.000000e+00 0.000000e+00 -1.052452e-16
      outer loop
         vertex 3.445000e-02 -1.270000e-02 -8.890000e-03
         vertex 3.445000e-02 -1.270000e-02 8.890000e-03
         vertex 3.445000e-02 1.270000e-02 -8.890000e-03
      endloop
   endfacet
   facet normal -1.000000e+00 0.000000e+00 -1.052452e-16
      outer loop
         vertex 3.445000e-02 1.270000e-02 -8.890000e-03
         vertex 3.445000e-02 -1.270000e-02 8.890000e-03
         vertex 3.445000e-02 1.270000e-02 8.890000e-03
      endloop
   endfacet
   facet normal 3.538262e-01 0.000000e+00 -9.353112e-01
      outer loop
         vertex 8.145000e-02 -1.270000e-02 8.890000e-03
         vertex 3.445000e-02 -1.270000e-02 -8.890000e-03
         vertex 8.145000e-02 1.270000e-02 8.890000e-03
      endloop
   endfacet
   facet normal 3.538262e-01 0.000000e+00 -9.353112e-01
      outer loop
         vertex 8.145000e-02 1.270000e-02 8.890000e-03
         vertex 3.445000e-02 -1.270000e-02 -8.890000e-03
         vertex 3.445000e-02 1.270000e-02 -8.890000e-03
      endloop
   endfacet
   facet normal 0.000000e+00 0.000000e+00 1.000000e+00
      outer loop
         vertex 3.445000e-02 -1.270000e-02 8.890000e-03
         vertex 8.145000e-02 -1.270000e-02 8.890000e-03
         vertex 3.445000e-02 1.270000e-02 8.890000e-03
      endloop
   endfacet
   facet normal 0.000000e+00 0.000000e+00 1.000000e+00
      outer loop
         vertex 3.445000e-02 1.270000e-02 8.890000e-03
         vertex 8.145000e-02 -1.270000e-02 8.890000e-03
         vertex 8.145000e-02 1.270000e-02 8.890000e-03
      endloop
   endfacet
   facet normal 0.000000e+00 -1.000000e+00 -0.000000e+00
      outer loop
         vertex 3.445000e-02 -1.270000e-02 -8.890000e-03
         vertex 8.145000e-02 -1.270000e-02 8.890000e-03
         vertex 3.445000e-02 -1.270000e-02 8.890000e-03
      endloop
   endfacet
   facet normal 0.000000e+00 1.000000e+00 0.000000e+00
      outer loop
         vertex 3.445000e-02 1.270000e-02 8.890000e-03
         vertex 8.145000e-02 1.270000e-02 8.890000e-03
         vertex 3.445000e-02 1.270000e-02 -8.890000e-03
      endloop
   endfacet
endsolid