solid Gripper - WristTurn-1-1
   facet normal 1.842950e-16 -9.833500e-01 1.817218e-01
      outer loop
         vertex 6.350000e-03 -9.901766e-03 1.398228e-03
         vertex 6.350000e-03 -9.747516e-03 2.232919e-03
         vertex -6.350000e-03 -9.747516e-03 2.232919e-03
      endloop
   endfacet
   facet normal 2.089150e-16 -9.643968e-01 2.644596e-01
      outer loop
         vertex -6.350000e-03 -9.747516e-03 2.232919e-03
         vertex 6.350000e-03 -9.747516e-03 2.232919e-03
         vertex -6.350000e-03 -9.523036e-03 3.051522e-03
      endloop
   endfacet
   facet normal 2.007300e-16 -9.643968e-01 2.644596e-01
      outer loop
         vertex 6.350000e-03 -9.747516e-03 2.232919e-03
         vertex 6.350000e-03 -9.523036e-03 3.051522e-03
         vertex -6.350000e-03 -9.523036e-03 3.051522e-03
      endloop
   endfacet
   facet normal 2.097653e-16 -9.229940e-01 3.848143e-01
      outer loop
         vertex -6.350000e-03 -9.523036e-03 3.051522e-03
         vertex 6.350000e-03 -9.523036e-03 3.051522e-03
         vertex 6.350000e-03 -8.870346e-03 4.617030e-03
      endloop
   endfacet
   facet normal 2.097653e-16 -9.229940e-01 3.848143e-01
      outer loop
         vertex -6.350000e-03 -9.523036e-03 3.051522e-03
         vertex 6.350000e-03 -8.870346e-03 4.617030e-03
         vertex -6.350000e-03 -8.870346e-03 4.617030e-03
      endloop
   endfacet
   facet normal 2.165090e-16 -8.446839e-01 5.352655e-01
      outer loop
         vertex -6.350000e-03 -8.870346e-03 4.617030e-03
         vertex 6.350000e-03 -8.870346e-03 4.617030e-03
         vertex 6.350000e-03 -7.962472e-03 6.049714e-03
      endloop
   endfacet
   facet normal 2.165090e-16 -8.446839e-01 5.352655e-01
      outer loop
         vertex -6.350000e-03 -8.870346e-03 4.617030e-03
         vertex 6.350000e-03 -7.962472e-03 6.049714e-03
         vertex -6.350000e-03 -7.962472e-03 6.049714e-03
      endloop
   endfacet
   facet normal 2.170242e-16 -7.420738e-01 6.703181e-01
      outer loop
         vertex -6.350000e-03 -7.962472e-03 6.049714e-03
         vertex 6.350000e-03 -7.962472e-03 6.049714e-03
         vertex 6.350000e-03 -6.825533e-03 7.308358e-03
      endloop
   endfacet
   facet normal 2.170242e-16 -7.420738e-01 6.703181e-01
      outer loop
         vertex -6.350000e-03 -7.962472e-03 6.049714e-03
         vertex 6.350000e-03 -6.825533e-03 7.308358e-03
         vertex -6.350000e-03 -6.825533e-03 7.308358e-03
      endloop
   endfacet
   facet normal 2.112960e-16 -6.181150e-01 7.860877e-01
      outer loop
         vertex -6.350000e-03 -6.825533e-03 7.308358e-03
         vertex 6.350000e-03 -6.825533e-03 7.308358e-03
         vertex 6.350000e-03 -5.492235e-03 8.356755e-03
      endloop
   endfacet
   facet normal 2.112960e-16 -6.181150e-01 7.860877e-01
      outer loop
         vertex -6.350000e-03 -6.825533e-03 7.308358e-03
         vertex 6.350000e-03 -5.492235e-03 8.356755e-03
         vertex -6.350000e-03 -5.492235e-03 8.356755e-03
      endloop
   endfacet
   facet normal 1.994891e-16 -4.763745e-01 8.792425e-01
      outer loop
         vertex -6.350000e-03 -5.492235e-03 8.356755e-03
         vertex 6.350000e-03 -5.492235e-03 8.356755e-03
         vertex 6.350000e-03 -4.000936e-03 9.164742e-03
      endloop
   endfacet
   facet normal 1.994891e-16 -4.763745e-01 8.792425e-01
      outer loop
         vertex -6.350000e-03 -5.492235e-03 8.356755e-03
         vertex 6.350000e-03 -4.000936e-03 9.164742e-03
         vertex -6.350000e-03 -4.000936e-03 9.164742e-03
      endloop
   endfacet
   facet normal 1.819434e-16 -3.209299e-01 9.471030e-01
      outer loop
         vertex -6.350000e-03 -4.000936e-03 9.164742e-03
         vertex 6.350000e-03 -4.000936e-03 9.164742e-03
         vertex 6.350000e-03 -2.394537e-03 9.709077e-03
      endloop
   endfacet
   facet normal 1.819434e-16 -3.209299e-01 9.471030e-01
      outer loop
         vertex -6.350000e-03 -4.000936e-03 9.164742e-03
         vertex 6.350000e-03 -2.394537e-03 9.709077e-03
         vertex -6.350000e-03 -2.394537e-03 9.709077e-03
      endloop
   endfacet
   facet normal 1.591634e-16 -1.562524e-01 9.877172e-01
      outer loop
         vertex -6.350000e-03 -2.394537e-03 9.709077e-03
         vertex 6.350000e-03 -2.394537e-03 9.709077e-03
         vertex 6.350000e-03 -7.192517e-04 9.974100e-03
      endloop
   endfacet
   facet normal 1.591634e-16 -1.562524e-01 9.877172e-01
      outer loop
         vertex -6.350000e-03 -2.394537e-03 9.709077e-03
         vertex 6.350000e-03 -7.192517e-04 9.974100e-03
         vertex -6.350000e-03 -7.192517e-04 9.974100e-03
      endloop
   endfacet
   facet normal 1.318046e-16 1.292004e-02 9.999165e-01
      outer loop
         vertex -6.350000e-03 -7.192517e-04 9.974100e-03
         vertex 6.350000e-03 -7.192517e-04 9.974100e-03
         vertex 6.350000e-03 9.767252e-04 9.952186e-03
      endloop
   endfacet
   facet normal 1.318046e-16 1.292004e-02 9.999165e-01
      outer loop
         vertex -6.350000e-03 -7.192517e-04 9.974100e-03
         vertex 6.350000e-03 9.767252e-04 9.952186e-03
         vertex -6.350000e-03 9.767252e-04 9.952186e-03
      endloop
   endfacet
   facet normal 1.006540e-16 1.817214e-01 9.833500e-01
      outer loop
         vertex -6.350000e-03 9.767252e-04 9.952186e-03
         vertex 6.350000e-03 9.767252e-04 9.952186e-03
         vertex 6.350000e-03 2.644603e-03 9.643965e-03
      endloop
   endfacet
   facet normal 1.006540e-16 1.817214e-01 9.833500e-01
      outer loop
         vertex -6.350000e-03 9.767252e-04 9.952186e-03
         vertex 6.350000e-03 2.644603e-03 9.643965e-03
         vertex -6.350000e-03 2.644603e-03 9.643965e-03
      endloop
   endfacet
   facet normal 6.660784e-17 3.452942e-01 9.384945e-01
      outer loop
         vertex -6.350000e-03 2.644603e-03 9.643965e-03
         vertex 6.350000e-03 2.644603e-03 9.643965e-03
         vertex 6.350000e-03 4.236401e-03 9.058305e-03
      endloop
   endfacet
   facet normal 6.660784e-17 3.452942e-01 9.384945e-01
      outer loop
         vertex -6.350000e-03 2.644603e-03 9.643965e-03
         vertex 6.350000e-03 4.236401e-03 9.058305e-03
         vertex -6.350000e-03 4.236401e-03 9.058305e-03
      endloop
   endfacet
   facet normal 3.064555e-17 4.989334e-01 8.666403e-01
      outer loop
         vertex -6.350000e-03 4.236401e-03 9.058305e-03
         vertex 6.350000e-03 4.236401e-03 9.058305e-03
         vertex 6.350000e-03 5.706326e-03 8.212055e-03
      endloop
   endfacet
   facet normal 3.064555e-17 4.989334e-01 8.666403e-01
      outer loop
         vertex -6.350000e-03 4.236401e-03 9.058305e-03
         vertex 6.350000e-03 5.706326e-03 8.212055e-03
         vertex -6.350000e-03 5.706326e-03 8.212055e-03
      endloop
   endfacet
   facet normal -6.198666e-18 6.382203e-01 7.698538e-01
      outer loop
         vertex -6.350000e-03 5.706326e-03 8.212055e-03
         vertex 6.350000e-03 5.706326e-03 8.212055e-03
         vertex 6.350000e-03 7.012089e-03 7.129558e-03
      endloop
   endfacet
   facet normal -6.198666e-18 6.382203e-01 7.698538e-01
      outer loop
         vertex -6.350000e-03 5.706326e-03 8.212055e-03
         vertex 6.350000e-03 7.012089e-03 7.129558e-03
         vertex -6.350000e-03 7.012089e-03 7.129558e-03
      endloop
   endfacet
   facet normal -4.286418e-17 7.591455e-01 6.509210e-01
      outer loop
         vertex -6.350000e-03 7.012089e-03 7.129558e-03
         vertex 6.350000e-03 7.012089e-03 7.129558e-03
         vertex 6.350000e-03 8.116128e-03 5.841957e-03
      endloop
   endfacet
   facet normal -4.286418e-17 7.591455e-01 6.509210e-01
      outer loop
         vertex -6.350000e-03 7.012089e-03 7.129558e-03
         vertex 6.350000e-03 8.116128e-03 5.841957e-03
         vertex -6.350000e-03 8.116128e-03 5.841957e-03
      endloop
   endfacet
   facet normal -7.829679e-17 8.582322e-01 5.132616e-01
      outer loop
         vertex -6.350000e-03 8.116128e-03 5.841957e-03
         vertex 6.350000e-03 8.116128e-03 5.841957e-03
         vertex 6.350000e-03 8.986681e-03 4.386294e-03
      endloop
   endfacet
   facet normal -7.829679e-17 8.582322e-01 5.132616e-01
      outer loop
         vertex -6.350000e-03 8.116128e-03 5.841957e-03
         vertex 6.350000e-03 8.986681e-03 4.386294e-03
         vertex -6.350000e-03 8.986681e-03 4.386294e-03
      endloop
   endfacet
   facet normal -1.114769e-16 9.326290e-01 3.608368e-01
      outer loop
         vertex -6.350000e-03 8.986681e-03 4.386294e-03
         vertex 6.350000e-03 8.986681e-03 4.386294e-03
         vertex 6.350000e-03 9.598703e-03 2.804444e-03
      endloop
   endfacet
   facet normal -1.114769e-16 9.326290e-01 3.608368e-01
      outer loop
         vertex -6.350000e-03 8.986681e-03 4.386294e-03
         vertex 6.350000e-03 9.598703e-03 2.804444e-03
         vertex -6.350000e-03 9.598703e-03 2.804444e-03
      endloop
   endfacet
   facet normal -1.414501e-16 9.801957e-01 1.980311e-01
      outer loop
         vertex -6.350000e-03 9.598703e-03 2.804444e-03
         vertex 6.350000e-03 9.598703e-03 2.804444e-03
         vertex 6.350000e-03 9.934587e-03 1.141916e-03
      endloop
   endfacet
   facet normal -1.414501e-16 9.801957e-01 1.980311e-01
      outer loop
         vertex -6.350000e-03 9.598703e-03 2.804444e-03
         vertex 6.350000e-03 9.934587e-03 1.141916e-03
         vertex -6.350000e-03 9.934587e-03 1.141916e-03
      endloop
   endfacet
   facet normal -1.673538e-16 9.995639e-01 2.952921e-02
      outer loop
         vertex -6.350000e-03 9.934587e-03 1.141916e-03
         vertex 6.350000e-03 9.934587e-03 1.141916e-03
         vertex 6.350000e-03 9.984672e-03 -5.534623e-04
      endloop
   endfacet
   facet normal -1.673538e-16 9.995639e-01 2.952921e-02
      outer loop
         vertex -6.350000e-03 9.934587e-03 1.141916e-03
         vertex 6.350000e-03 9.984672e-03 -5.534623e-04
         vertex -6.350000e-03 9.984672e-03 -5.534623e-04
      endloop
   endfacet
   facet normal -1.884433e-16 9.901765e-01 -1.398228e-01
      outer loop
         vertex -6.350000e-03 9.984672e-03 -5.534623e-04
         vertex 6.350000e-03 9.984672e-03 -5.534623e-04
         vertex 6.350000e-03 9.747516e-03 -2.232919e-03
      endloop
   endfacet
   facet normal -1.884433e-16 9.901765e-01 -1.398228e-01
      outer loop
         vertex -6.350000e-03 9.984672e-03 -5.534623e-04
         vertex 6.350000e-03 9.747516e-03 -2.232919e-03
         vertex -6.350000e-03 9.747516e-03 -2.232919e-03
      endloop
   endfacet
   facet normal -2.041115e-16 9.523036e-01 -3.051522e-01
      outer loop
         vertex -6.350000e-03 9.747516e-03 -2.232919e-03
         vertex 6.350000e-03 9.747516e-03 -2.232919e-03
         vertex 6.350000e-03 9.229942e-03 -3.848139e-03
      endloop
   endfacet
   facet normal -2.041115e-16 9.523036e-01 -3.051522e-01
      outer loop
         vertex -6.350000e-03 9.747516e-03 -2.232919e-03
         vertex 6.350000e-03 9.229942e-03 -3.848139e-03
         vertex -6.350000e-03 9.229942e-03 -3.848139e-03
      endloop
   endfacet
   facet normal -2.139078e-16 8.870345e-01 -4.617031e-01
      outer loop
         vertex -6.350000e-03 9.229942e-03 -3.848139e-03
         vertex 6.350000e-03 9.229942e-03 -3.848139e-03
         vertex 6.350000e-03 8.446839e-03 -5.352654e-03
      endloop
   endfacet
   facet normal -2.139078e-16 8.870345e-01 -4.617031e-01
      outer loop
         vertex -6.350000e-03 9.229942e-03 -3.848139e-03
         vertex 6.350000e-03 8.446839e-03 -5.352654e-03
         vertex -6.350000e-03 8.446839e-03 -5.352654e-03
      endloop
   endfacet
   facet normal -2.175503e-16 7.962475e-01 -6.049710e-01
      outer loop
         vertex -6.350000e-03 8.446839e-03 -5.352654e-03
         vertex 6.350000e-03 8.446839e-03 -5.352654e-03
         vertex 6.350000e-03 7.420736e-03 -6.703184e-03
      endloop
   endfacet
   facet normal -2.175503e-16 7.962475e-01 -6.049710e-01
      outer loop
         vertex -6.350000e-03 8.446839e-03 -5.352654e-03
         vertex 6.350000e-03 7.420736e-03 -6.703184e-03
         vertex -6.350000e-03 7.420736e-03 -6.703184e-03
      endloop
   endfacet
   facet normal -2.149344e-16 6.825533e-01 -7.308358e-01
      outer loop
         vertex -6.350000e-03 7.420736e-03 -6.703184e-03
         vertex 6.350000e-03 7.420736e-03 -6.703184e-03
         vertex 6.350000e-03 6.181152e-03 -7.860876e-03
      endloop
   endfacet
   facet normal -2.149344e-16 6.825533e-01 -7.308358e-01
      outer loop
         vertex -6.350000e-03 7.420736e-03 -6.703184e-03
         vertex 6.350000e-03 6.181152e-03 -7.860876e-03
         vertex -6.350000e-03 6.181152e-03 -7.860876e-03
      endloop
   endfacet
   facet normal -2.061351e-16 5.492235e-01 -8.356755e-01
      outer loop
         vertex -6.350000e-03 6.181152e-03 -7.860876e-03
         vertex 6.350000e-03 6.181152e-03 -7.860876e-03
         vertex 6.350000e-03 4.763747e-03 -8.792424e-03
      endloop
   endfacet
   facet normal -2.061351e-16 5.492235e-01 -8.356755e-01
      outer loop
         vertex -6.350000e-03 6.181152e-03 -7.860876e-03
         vertex 6.350000e-03 4.763747e-03 -8.792424e-03
         vertex -6.350000e-03 4.763747e-03 -8.792424e-03
      endloop
   endfacet
   facet normal -1.914058e-16 4.000933e-01 -9.164744e-01
      outer loop
         vertex -6.350000e-03 4.763747e-03 -8.792424e-03
         vertex 6.350000e-03 4.763747e-03 -8.792424e-03
         vertex 6.350000e-03 3.209298e-03 -9.471029e-03
      endloop
   endfacet
   facet normal -1.914058e-16 4.000933e-01 -9.164744e-01
      outer loop
         vertex -6.350000e-03 4.763747e-03 -8.792424e-03
         vertex 6.350000e-03 3.209298e-03 -9.471029e-03
         vertex -6.350000e-03 3.209298e-03 -9.471029e-03
      endloop
   endfacet
   facet normal -1.711701e-16 2.394542e-01 -9.709077e-01
      outer loop
         vertex -6.350000e-03 3.209298e-03 -9.471029e-03
         vertex 6.350000e-03 3.209298e-03 -9.471029e-03
         vertex 6.350000e-03 1.562523e-03 -9.877172e-03
      endloop
   endfacet
   facet normal -1.711701e-16 2.394542e-01 -9.709077e-01
      outer loop
         vertex -6.350000e-03 3.209298e-03 -9.471029e-03
         vertex 6.350000e-03 1.562523e-03 -9.877172e-03
         vertex -6.350000e-03 1.562523e-03 -9.877172e-03
      endloop
   endfacet
   facet normal -1.460099e-16 7.192471e-02 -9.974101e-01
      outer loop
         vertex -6.350000e-03 1.562523e-03 -9.877172e-03
         vertex 6.350000e-03 1.562523e-03 -9.877172e-03
         vertex 6.350000e-03 -1.292021e-04 -9.999165e-03
      endloop
   endfacet
   facet normal -1.460099e-16 7.192471e-02 -9.974101e-01
      outer loop
         vertex -6.350000e-03 1.562523e-03 -9.877172e-03
         vertex 6.350000e-03 -1.292021e-04 -9.999165e-03
         vertex -6.350000e-03 -1.292021e-04 -9.999165e-03
      endloop
   endfacet
   facet normal -1.166496e-16 -9.767253e-02 -9.952186e-01
      outer loop
         vertex -6.350000e-03 -1.292021e-04 -9.999165e-03
         vertex 6.350000e-03 -1.292021e-04 -9.999165e-03
         vertex 6.350000e-03 -1.817211e-03 -9.833501e-03
      endloop
   endfacet
   facet normal -1.166496e-16 -9.767253e-02 -9.952186e-01
      outer loop
         vertex -6.350000e-03 -1.292021e-04 -9.999165e-03
         vertex 6.350000e-03 -1.817211e-03 -9.833501e-03
         vertex -6.350000e-03 -1.817211e-03 -9.833501e-03
      endloop
   endfacet
   facet normal -8.393338e-17 -2.644600e-01 -9.643967e-01
      outer loop
         vertex -6.350000e-03 -1.817211e-03 -9.833501e-03
         vertex 6.350000e-03 -1.817211e-03 -9.833501e-03
         vertex 6.350000e-03 -3.452942e-03 -9.384945e-03
      endloop
   endfacet
   facet normal -8.393338e-17 -2.644600e-01 -9.643967e-01
      outer loop
         vertex -6.350000e-03 -1.817211e-03 -9.833501e-03
         vertex 6.350000e-03 -3.452942e-03 -9.384945e-03
         vertex -6.350000e-03 -3.452942e-03 -9.384945e-03
      endloop
   endfacet
   facet normal -4.880241e-17 -4.236403e-01 -9.058305e-01
      outer loop
         vertex -6.350000e-03 -3.452942e-03 -9.384945e-03
         vertex 6.350000e-03 -3.452942e-03 -9.384945e-03
         vertex 6.350000e-03 -4.989338e-03 -8.666401e-03
      endloop
   endfacet
   facet normal -4.880241e-17 -4.236403e-01 -9.058305e-01
      outer loop
         vertex -6.350000e-03 -3.452942e-03 -9.384945e-03
         vertex 6.350000e-03 -4.989338e-03 -8.666401e-03
         vertex -6.350000e-03 -4.989338e-03 -8.666401e-03
      endloop
   endfacet
   facet normal -1.226762e-17 -5.706327e-01 -8.212054e-01
      outer loop
         vertex -6.350000e-03 -4.989338e-03 -8.666401e-03
         vertex 6.350000e-03 -4.989338e-03 -8.666401e-03
         vertex 6.350000e-03 -6.382200e-03 -7.698540e-03
      endloop
   endfacet
   facet normal -1.226762e-17 -5.706327e-01 -8.212054e-01
      outer loop
         vertex -6.350000e-03 -4.989338e-03 -8.666401e-03
         vertex 6.350000e-03 -6.382200e-03 -7.698540e-03
         vertex -6.350000e-03 -6.382200e-03 -7.698540e-03
      endloop
   endfacet
   facet normal 2.462011e-17 -7.012090e-01 -7.129558e-01
      outer loop
         vertex -6.350000e-03 -6.382200e-03 -7.698540e-03
         vertex 6.350000e-03 -6.382200e-03 -7.698540e-03
         vertex 6.350000e-03 -7.591457e-03 -6.509207e-03
      endloop
   endfacet
   facet normal 2.462011e-17 -7.012090e-01 -7.129558e-01
      outer loop
         vertex -6.350000e-03 -6.382200e-03 -7.698540e-03
         vertex 6.350000e-03 -7.591457e-03 -6.509207e-03
         vertex -6.350000e-03 -7.591457e-03 -6.509207e-03
      endloop
   endfacet
   facet normal 6.079951e-17 -8.116127e-01 -5.841959e-01
      outer loop
         vertex -6.350000e-03 -7.591457e-03 -6.509207e-03
         vertex 6.350000e-03 -7.591457e-03 -6.509207e-03
         vertex 6.350000e-03 -8.582322e-03 -5.132616e-03
      endloop
   endfacet
   facet normal 6.079951e-17 -8.116127e-01 -5.841959e-01
      outer loop
         vertex -6.350000e-03 -7.591457e-03 -6.509207e-03
         vertex 6.350000e-03 -8.582322e-03 -5.132616e-03
         vertex -6.350000e-03 -8.582322e-03 -5.132616e-03
      endloop
   endfacet
   facet normal 9.522988e-17 -8.986680e-01 -4.386295e-01
      outer loop
         vertex -6.350000e-03 -8.582322e-03 -5.132616e-03
         vertex 6.350000e-03 -8.582322e-03 -5.132616e-03
         vertex 6.350000e-03 -9.326290e-03 -3.608368e-03
      endloop
   endfacet
   facet normal 9.522988e-17 -8.986680e-01 -4.386295e-01
      outer loop
         vertex -6.350000e-03 -8.582322e-03 -5.132616e-03
         vertex 6.350000e-03 -9.326290e-03 -3.608368e-03
         vertex -6.350000e-03 -9.326290e-03 -3.608368e-03
      endloop
   endfacet
   facet normal 1.269208e-16 -9.598704e-01 -2.804441e-01
      outer loop
         vertex -6.350000e-03 -9.326290e-03 -3.608368e-03
         vertex 6.350000e-03 -9.326290e-03 -3.608368e-03
         vertex 6.350000e-03 -9.801956e-03 -1.980315e-03
      endloop
   endfacet
   facet normal 1.269208e-16 -9.598704e-01 -2.804441e-01
      outer loop
         vertex -6.350000e-03 -9.326290e-03 -3.608368e-03
         vertex 6.350000e-03 -9.801956e-03 -1.980315e-03
         vertex -6.350000e-03 -9.801956e-03 -1.980315e-03
      endloop
   endfacet
   facet normal 1.549602e-16 -9.934587e-01 -1.141916e-01
      outer loop
         vertex -6.350000e-03 -9.801956e-03 -1.980315e-03
         vertex 6.350000e-03 -9.801956e-03 -1.980315e-03
         vertex 6.350000e-03 -9.995639e-03 -2.952908e-04
      endloop
   endfacet
   facet normal 1.549602e-16 -9.934587e-01 -1.141916e-01
      outer loop
         vertex -6.350000e-03 -9.801956e-03 -1.980315e-03
         vertex 6.350000e-03 -9.995639e-03 -2.952908e-04
         vertex -6.350000e-03 -9.995639e-03 -2.952908e-04
      endloop
   endfacet
   facet normal 1.785417e-16 -9.984672e-01 5.534578e-02
      outer loop
         vertex -6.350000e-03 -9.995639e-03 -2.952908e-04
         vertex 6.350000e-03 -9.995639e-03 -2.952908e-04
         vertex 6.350000e-03 -9.901766e-03 1.398228e-03
      endloop
   endfacet
   facet normal 1.785417e-16 -9.984672e-01 5.534578e-02
      outer loop
         vertex -6.350000e-03 -9.995639e-03 -2.952908e-04
         vertex 6.350000e-03 -9.901766e-03 1.398228e-03
         vertex -6.350000e-03 -9.901766e-03 1.398228e-03
      endloop
   endfacet
   facet normal 1.928890e-16 -9.833500e-01 1.817218e-01
      outer loop
         vertex -6.350000e-03 -9.901766e-03 1.398228e-03
         vertex 6.350000e-03 -9.901766e-03 1.398228e-03
         vertex -6.350000e-03 -9.747516e-03 2.232919e-03
      endloop
   endfacet
   facet normal 1.000000e+00 2.775558e-16 0.000000e+00
      outer loop
         vertex 6.350000e-03 -9.747516e-03 2.232919e-03
         vertex 6.350000e-03 -9.901766e-03 1.398228e-03
         vertex 6.350000e-03 3.469447e-18 0.000000e+00
      endloop
   endfacet
   facet normal 1.000000e+00 2.775558e-16 0.000000e+00
      outer loop
         vertex 6.350000e-03 -9.747516e-03 2.232919e-03
         vertex 6.350000e-03 3.469447e-18 0.000000e+00
         vertex 6.350000e-03 -9.523036e-03 3.051522e-03
      endloop
   endfacet
   facet normal 1.000000e+00 2.775558e-16 0.000000e+00
      outer loop
         vertex 6.350000e-03 -6.825533e-03 7.308358e-03
         vertex 6.350000e-03 -7.962472e-03 6.049714e-03
         vertex 6.350000e-03 3.469447e-18 0.000000e+00
      endloop
   endfacet
   facet normal 1.000000e+00 2.775558e-16 0.000000e+00
      outer loop
         vertex 6.350000e-03 3.469447e-18 0.000000e+00
         vertex 6.350000e-03 -7.962472e-03 6.049714e-03
         vertex 6.350000e-03 -8.870346e-03 4.617030e-03
      endloop
   endfacet
   facet normal 1.000000e+00 2.775558e-16 0.000000e+00
      outer loop
         vertex 6.350000e-03 3.469447e-18 0.000000e+00
         vertex 6.350000e-03 -8.870346e-03 4.617030e-03
         vertex 6.350000e-03 -9.523036e-03 3.051522e-03
      endloop
   endfacet
   facet normal 1.000000e+00 2.775558e-16 -4.930381e-32
      outer loop
         vertex 6.350000e-03 -2.394537e-03 9.709077e-03
         vertex 6.350000e-03 -4.000936e-03 9.164742e-03
         vertex 6.350000e-03 3.469447e-18 0.000000e+00
      endloop
   endfacet
   facet normal 1.000000e+00 2.775558e-16 0.000000e+00
      outer loop
         vertex 6.350000e-03 3.469447e-18 0.000000e+00
         vertex 6.350000e-03 -4.000936e-03 9.164742e-03
         vertex 6.350000e-03 -5.492235e-03 8.356755e-03
      endloop
   endfacet
   facet normal 1.000000e+00 2.775558e-16 0.000000e+00
      outer loop
         vertex 6.350000e-03 3.469447e-18 0.000000e+00
         vertex 6.350000e-03 -5.492235e-03 8.356755e-03
         vertex 6.350000e-03 -6.825533e-03 7.308358e-03
      endloop
   endfacet
   facet normal 1.000000e+00 2.775558e-16 0.000000e+00
      outer loop
         vertex 6.350000e-03 2.644603e-03 9.643965e-03
         vertex 6.350000e-03 9.767252e-04 9.952186e-03
         vertex 6.350000e-03 3.469447e-18 0.000000e+00
      endloop
   endfacet
   facet normal 1.000000e+00 2.775558e-16 0.000000e+00
      outer loop
         vertex 6.350000e-03 3.469447e-18 0.000000e+00
         vertex 6.350000e-03 9.767252e-04 9.952186e-03
         vertex 6.350000e-03 -7.192517e-04 9.974100e-03
      endloop
   endfacet
   facet normal 1.000000e+00 2.775558e-16 0.000000e+00
      outer loop
         vertex 6.350000e-03 3.469447e-18 0.000000e+00
         vertex 6.350000e-03 -7.192517e-04 9.974100e-03
         vertex 6.350000e-03 -2.394537e-03 9.709077e-03
      endloop
   endfacet
   facet normal 1.000000e+00 2.775558e-16 0.000000e+00
      outer loop
         vertex 6.350000e-03 7.012089e-03 7.129558e-03
         vertex 6.350000e-03 5.706326e-03 8.212055e-03
         vertex 6.350000e-03 3.469447e-18 0.000000e+00
      endloop
   endfacet
   facet normal 1.000000e+00 2.775558e-16 0.000000e+00
      outer loop
         vertex 6.350000e-03 3.469447e-18 0.000000e+00
         vertex 6.350000e-03 5.706326e-03 8.212055e-03
         vertex 6.350000e-03 4.236401e-03 9.058305e-03
      endloop
   endfacet
   facet normal 1.000000e+00 2.775558e-16 0.000000e+00
      outer loop
         vertex 6.350000e-03 3.469447e-18 0.000000e+00
         vertex 6.350000e-03 4.236401e-03 9.058305e-03
         vertex 6.350000e-03 2.644603e-03 9.643965e-03
      endloop
   endfacet
   facet normal 1.000000e+00 2.775558e-16 0.000000e+00
      outer loop
         vertex 6.350000e-03 9.598703e-03 2.804444e-03
         vertex 6.350000e-03 8.986681e-03 4.386294e-03
         vertex 6.350000e-03 3.469447e-18 0.000000e+00
      endloop
   endfacet
   facet normal 1.000000e+00 2.775558e-16 0.000000e+00
      outer loop
         vertex 6.350000e-03 3.469447e-18 0.000000e+00
         vertex 6.350000e-03 8.986681e-03 4.386294e-03
         vertex 6.350000e-03 8.116128e-03 5.841957e-03
      endloop
   endfacet
   facet normal 1.000000e+00 2.775558e-16 0.000000e+00
      outer loop
         vertex 6.350000e-03 3.469447e-18 0.000000e+00
         vertex 6.350000e-03 8.116128e-03 5.841957e-03
         vertex 6.350000e-03 7.012089e-03 7.129558e-03
      endloop
   endfacet
   facet normal 1.000000e+00 2.775558e-16 0.000000e+00
      outer loop
         vertex 6.350000e-03 9.747516e-03 -2.232919e-03
         vertex 6.350000e-03 9.984672e-03 -5.534623e-04
         vertex 6.350000e-03 3.469447e-18 0.000000e+00
      endloop
   endfacet
   facet normal 1.000000e+00 2.775558e-16 0.000000e+00
      outer loop
         vertex 6.350000e-03 3.469447e-18 0.000000e+00
         vertex 6.350000e-03 9.984672e-03 -5.534623e-04
         vertex 6.350000e-03 9.934587e-03 1.141916e-03
      endloop
   endfacet
   facet normal 1.000000e+00 2.775558e-16 0.000000e+00
      outer loop
         vertex 6.350000e-03 3.469447e-18 0.000000e+00
         vertex 6.350000e-03 9.934587e-03 1.141916e-03
         vertex 6.350000e-03 9.598703e-03 2.804444e-03
      endloop
   endfacet
   facet normal 1.000000e+00 2.775558e-16 0.000000e+00
      outer loop
         vertex 6.350000e-03 7.420736e-03 -6.703184e-03
         vertex 6.350000e-03 8.446839e-03 -5.352654e-03
         vertex 6.350000e-03 3.469447e-18 0.000000e+00
      endloop
   endfacet
   facet normal 1.000000e+00 2.775558e-16 0.000000e+00
      outer loop
         vertex 6.350000e-03 3.469447e-18 0.000000e+00
         vertex 6.350000e-03 8.446839e-03 -5.352654e-03
         vertex 6.350000e-03 9.229942e-03 -3.848139e-03
      endloop
   endfacet
   facet normal 1.000000e+00 2.775558e-16 0.000000e+00
      outer loop
         vertex 6.350000e-03 3.469447e-18 0.000000e+00
         vertex 6.350000e-03 9.229942e-03 -3.848139e-03
         vertex 6.350000e-03 9.747516e-03 -2.232919e-03
      endloop
   endfacet
   facet normal 1.000000e+00 2.775558e-16 0.000000e+00
      outer loop
         vertex 6.350000e-03 3.209298e-03 -9.471029e-03
         vertex 6.350000e-03 4.763747e-03 -8.792424e-03
         vertex 6.350000e-03 3.469447e-18 0.000000e+00
      endloop
   endfacet
   facet normal 1.000000e+00 2.775558e-16 0.000000e+00
      outer loop
         vertex 6.350000e-03 3.469447e-18 0.000000e+00
         vertex 6.350000e-03 4.763747e-03 -8.792424e-03
         vertex 6.350000e-03 6.181152e-03 -7.860876e-03
      endloop
   endfacet
   facet normal 1.000000e+00 2.775558e-16 0.000000e+00
      outer loop
         vertex 6.350000e-03 3.469447e-18 0.000000e+00
         vertex 6.350000e-03 6.181152e-03 -7.860876e-03
         vertex 6.350000e-03 7.420736e-03 -6.703184e-03
      endloop
   endfacet
   facet normal 1.000000e+00 2.775558e-16 0.000000e+00
      outer loop
         vertex 6.350000e-03 -1.817211e-03 -9.833501e-03
         vertex 6.350000e-03 -1.292021e-04 -9.999165e-03
         vertex 6.350000e-03 3.469447e-18 0.000000e+00
      endloop
   endfacet
   facet normal 1.000000e+00 2.775558e-16 0.000000e+00
      outer loop
         vertex 6.350000e-03 3.469447e-18 0.000000e+00
         vertex 6.350000e-03 -1.292021e-04 -9.999165e-03
         vertex 6.350000e-03 1.562523e-03 -9.877172e-03
      endloop
   endfacet
   facet normal 1.000000e+00 2.775558e-16 0.000000e+00
      outer loop
         vertex 6.350000e-03 3.469447e-18 0.000000e+00
         vertex 6.350000e-03 1.562523e-03 -9.877172e-03
         vertex 6.350000e-03 3.209298e-03 -9.471029e-03
      endloop
   endfacet
   facet normal 1.000000e+00 2.775558e-16 0.000000e+00
      outer loop
         vertex 6.350000e-03 -6.382200e-03 -7.698540e-03
         vertex 6.350000e-03 -4.989338e-03 -8.666401e-03
         vertex 6.350000e-03 3.469447e-18 0.000000e+00
      endloop
   endfacet
   facet normal 1.000000e+00 2.775558e-16 0.000000e+00
      outer loop
         vertex 6.350000e-03 3.469447e-18 0.000000e+00
         vertex 6.350000e-03 -4.989338e-03 -8.666401e-03
         vertex 6.350000e-03 -3.452942e-03 -9.384945e-03
      endloop
   endfacet
   facet normal 1.000000e+00 2.775558e-16 0.000000e+00
      outer loop
         vertex 6.350000e-03 3.469447e-18 0.000000e+00
         vertex 6.350000e-03 -3.452942e-03 -9.384945e-03
         vertex 6.350000e-03 -1.817211e-03 -9.833501e-03
      endloop
   endfacet
   facet normal 1.000000e+00 2.775558e-16 0.000000e+00
      outer loop
         vertex 6.350000e-03 -9.326290e-03 -3.608368e-03
         vertex 6.350000e-03 -8.582322e-03 -5.132616e-03
         vertex 6.350000e-03 3.469447e-18 0.000000e+00
      endloop
   endfacet
   facet normal 1.000000e+00 2.775558e-16 0.000000e+00
      outer loop
         vertex 6.350000e-03 3.469447e-18 0.000000e+00
         vertex 6.350000e-03 -8.582322e-03 -5.132616e-03
         vertex 6.350000e-03 -7.591457e-03 -6.509207e-03
      endloop
   endfacet
   facet normal 1.000000e+00 2.775558e-16 -4.930381e-32
      outer loop
         vertex 6.350000e-03 3.469447e-18 0.000000e+00
         vertex 6.350000e-03 -7.591457e-03 -6.509207e-03
         vertex 6.350000e-03 -6.382200e-03 -7.698540e-03
      endloop
   endfacet
   facet normal 1.000000e+00 2.775558e-16 0.000000e+00
      outer loop
         vertex 6.350000e-03 -9.901766e-03 1.398228e-03
         vertex 6.350000e-03 -9.995639e-03 -2.952908e-04
         vertex 6.350000e-03 3.469447e-18 0.000000e+00
      endloop
   endfacet
   facet normal 1.000000e+00 2.775558e-16 0.000000e+00
      outer loop
         vertex 6.350000e-03 3.469447e-18 0.000000e+00
         vertex 6.350000e-03 -9.995639e-03 -2.952908e-04
         vertex 6.350000e-03 -9.801956e-03 -1.980315e-03
      endloop
   endfacet
   facet normal 1.000000e+00 2.775558e-16 0.000000e+00
      outer loop
         vertex 6.350000e-03 3.469447e-18 0.000000e+00
         vertex 6.350000e-03 -9.801956e-03 -1.980315e-03
         vertex 6.350000e-03 -9.326290e-03 -3.608368e-03
      endloop
   endfacet
   facet normal -1.000000e+00 -2.775558e-16 0.000000e+00
      outer loop
         vertex -6.350000e-03 -9.747516e-03 2.232919e-03
         vertex -6.350000e-03 -9.523036e-03 3.051522e-03
         vertex -6.350000e-03 -3.469447e-18 3.469447e-18
      endloop
   endfacet
   facet normal -1.000000e+00 -2.775558e-16 0.000000e+00
      outer loop
         vertex -6.350000e-03 -9.747516e-03 2.232919e-03
         vertex -6.350000e-03 -3.469447e-18 3.469447e-18
         vertex -6.350000e-03 -9.901766e-03 1.398228e-03
      endloop
   endfacet
   facet normal -1.000000e+00 -2.775558e-16 0.000000e+00
      outer loop
         vertex -6.350000e-03 -9.326290e-03 -3.608368e-03
         vertex -6.350000e-03 -9.801956e-03 -1.980315e-03
         vertex -6.350000e-03 -3.469447e-18 3.469447e-18
      endloop
   endfacet
   facet normal -1.000000e+00 -2.775558e-16 0.000000e+00
      outer loop
         vertex -6.350000e-03 -3.469447e-18 3.469447e-18
         vertex -6.350000e-03 -9.801956e-03 -1.980315e-03
         vertex -6.350000e-03 -9.995639e-03 -2.952908e-04
      endloop
   endfacet
   facet normal -1.000000e+00 -2.775558e-16 0.000000e+00
      outer loop
         vertex -6.350000e-03 -3.469447e-18 3.469447e-18
         vertex -6.350000e-03 -9.995639e-03 -2.952908e-04
         vertex -6.350000e-03 -9.901766e-03 1.398228e-03
      endloop
   endfacet
   facet normal -1.000000e+00 -2.775558e-16 4.930381e-32
      outer loop
         vertex -6.350000e-03 -6.382200e-03 -7.698540e-03
         vertex -6.350000e-03 -7.591457e-03 -6.509207e-03
         vertex -6.350000e-03 -3.469447e-18 3.469447e-18
      endloop
   endfacet
   facet normal -1.000000e+00 -2.775558e-16 0.000000e+00
      outer loop
         vertex -6.350000e-03 -3.469447e-18 3.469447e-18
         vertex -6.350000e-03 -7.591457e-03 -6.509207e-03
         vertex -6.350000e-03 -8.582322e-03 -5.132616e-03
      endloop
   endfacet
   facet normal -1.000000e+00 -2.775558e-16 0.000000e+00
      outer loop
         vertex -6.350000e-03 -3.469447e-18 3.469447e-18
         vertex -6.350000e-03 -8.582322e-03 -5.132616e-03
         vertex -6.350000e-03 -9.326290e-03 -3.608368e-03
      endloop
   endfacet
   facet normal -1.000000e+00 -2.775558e-16 0.000000e+00
      outer loop
         vertex -6.350000e-03 -1.817211e-03 -9.833501e-03
         vertex -6.350000e-03 -3.452942e-03 -9.384945e-03
         vertex -6.350000e-03 -3.469447e-18 3.469447e-18
      endloop
   endfacet
   facet normal -1.000000e+00 -2.775558e-16 0.000000e+00
      outer loop
         vertex -6.350000e-03 -3.469447e-18 3.469447e-18
         vertex -6.350000e-03 -3.452942e-03 -9.384945e-03
         vertex -6.350000e-03 -4.989338e-03 -8.666401e-03
      endloop
   endfacet
   facet normal -1.000000e+00 -2.775558e-16 0.000000e+00
      outer loop
         vertex -6.350000e-03 -3.469447e-18 3.469447e-18
         vertex -6.350000e-03 -4.989338e-03 -8.666401e-03
         vertex -6.350000e-03 -6.382200e-03 -7.698540e-03
      endloop
   endfacet
   facet normal -1.000000e+00 -2.775558e-16 0.000000e+00
      outer loop
         vertex -6.350000e-03 3.209298e-03 -9.471029e-03
         vertex -6.350000e-03 1.562523e-03 -9.877172e-03
         vertex -6.350000e-03 -3.469447e-18 3.469447e-18
      endloop
   endfacet
   facet normal -1.000000e+00 -2.775558e-16 0.000000e+00
      outer loop
         vertex -6.350000e-03 -3.469447e-18 3.469447e-18
         vertex -6.350000e-03 1.562523e-03 -9.877172e-03
         vertex -6.350000e-03 -1.292021e-04 -9.999165e-03
      endloop
   endfacet
   facet normal -1.000000e+00 -2.775558e-16 0.000000e+00
      outer loop
         vertex -6.350000e-03 -3.469447e-18 3.469447e-18
         vertex -6.350000e-03 -1.292021e-04 -9.999165e-03
         vertex -6.350000e-03 -1.817211e-03 -9.833501e-03
      endloop
   endfacet
   facet normal -1.000000e+00 -2.775558e-16 0.000000e+00
      outer loop
         vertex -6.350000e-03 7.420736e-03 -6.703184e-03
         vertex -6.350000e-03 6.181152e-03 -7.860876e-03
         vertex -6.350000e-03 -3.469447e-18 3.469447e-18
      endloop
   endfacet
   facet normal -1.000000e+00 -2.775558e-16 0.000000e+00
      outer loop
         vertex -6.350000e-03 -3.469447e-18 3.469447e-18
         vertex -6.350000e-03 6.181152e-03 -7.860876e-03
         vertex -6.350000e-03 4.763747e-03 -8.792424e-03
      endloop
   endfacet
   facet normal -1.000000e+00 -2.775558e-16 0.000000e+00
      outer loop
         vertex -6.350000e-03 -3.469447e-18 3.469447e-18
         vertex -6.350000e-03 4.763747e-03 -8.792424e-03
         vertex -6.350000e-03 3.209298e-03 -9.471029e-03
      endloop
   endfacet
   facet normal -1.000000e+00 -2.775558e-16 0.000000e+00
      outer loop
         vertex -6.350000e-03 9.747516e-03 -2.232919e-03
         vertex -6.350000e-03 9.229942e-03 -3.848139e-03
         vertex -6.350000e-03 -3.469447e-18 3.469447e-18
      endloop
   endfacet
   facet normal -1.000000e+00 -2.775558e-16 0.000000e+00
      outer loop
         vertex -6.350000e-03 -3.469447e-18 3.469447e-18
         vertex -6.350000e-03 9.229942e-03 -3.848139e-03
         vertex -6.350000e-03 8.446839e-03 -5.352654e-03
      endloop
   endfacet
   facet normal -1.000000e+00 -2.775558e-16 0.000000e+00
      outer loop
         vertex -6.350000e-03 -3.469447e-18 3.469447e-18
         vertex -6.350000e-03 8.446839e-03 -5.352654e-03
         vertex -6.350000e-03 7.420736e-03 -6.703184e-03
      endloop
   endfacet
   facet normal -1.000000e+00 -2.775558e-16 0.000000e+00
      outer loop
         vertex -6.350000e-03 9.598703e-03 2.804444e-03
         vertex -6.350000e-03 9.934587e-03 1.141916e-03
         vertex -6.350000e-03 -3.469447e-18 3.469447e-18
      endloop
   endfacet
   facet normal -1.000000e+00 -2.775558e-16 0.000000e+00
      outer loop
         vertex -6.350000e-03 -3.469447e-18 3.469447e-18
         vertex -6.350000e-03 9.934587e-03 1.141916e-03
         vertex -6.350000e-03 9.984672e-03 -5.534623e-04
      endloop
   endfacet
   facet normal -1.000000e+00 -2.775558e-16 0.000000e+00
      outer loop
         vertex -6.350000e-03 -3.469447e-18 3.469447e-18
         vertex -6.350000e-03 9.984672e-03 -5.534623e-04
         vertex -6.350000e-03 9.747516e-03 -2.232919e-03
      endloop
   endfacet
   facet normal -1.000000e+00 -2.775558e-16 0.000000e+00
      outer loop
         vertex -6.350000e-03 7.012089e-03 7.129558e-03
         vertex -6.350000e-03 8.116128e-03 5.841957e-03
         vertex -6.350000e-03 -3.469447e-18 3.469447e-18
      endloop
   endfacet
   facet normal -1.000000e+00 -2.775558e-16 0.000000e+00
      outer loop
         vertex -6.350000e-03 -3.469447e-18 3.469447e-18
         vertex -6.350000e-03 8.116128e-03 5.841957e-03
         vertex -6.350000e-03 8.986681e-03 4.386294e-03
      endloop
   endfacet
   facet normal -1.000000e+00 -2.775558e-16 0.000000e+00
      outer loop
         vertex -6.350000e-03 -3.469447e-18 3.469447e-18
         vertex -6.350000e-03 8.986681e-03 4.386294e-03
         vertex -6.350000e-03 9.598703e-03 2.804444e-03
      endloop
   endfacet
   facet normal -1.000000e+00 -2.775558e-16 0.000000e+00
      outer loop
         vertex -6.350000e-03 2.644603e-03 9.643965e-03
         vertex -6.350000e-03 4.236401e-03 9.058305e-03
         vertex -6.350000e-03 -3.469447e-18 3.469447e-18
      endloop
   endfacet
   facet normal -1.000000e+00 -2.775558e-16 0.000000e+00
      outer loop
         vertex -6.350000e-03 -3.469447e-18 3.469447e-18
         vertex -6.350000e-03 4.236401e-03 9.058305e-03
         vertex -6.350000e-03 5.706326e-03 8.212055e-03
      endloop
   endfacet
   facet normal -1.000000e+00 -2.775558e-16 0.000000e+00
      outer loop
         vertex -6.350000e-03 -3.469447e-18 3.469447e-18
         vertex -6.350000e-03 5.706326e-03 8.212055e-03
         vertex -6.350000e-03 7.012089e-03 7.129558e-03
      endloop
   endfacet
   facet normal -1.000000e+00 -2.775558e-16 0.000000e+00
      outer loop
         vertex -6.350000e-03 -2.394537e-03 9.709077e-03
         vertex -6.350000e-03 -7.192517e-04 9.974100e-03
         vertex -6.350000e-03 -3.469447e-18 3.469447e-18
      endloop
   endfacet
   facet normal -1.000000e+00 -2.775558e-16 0.000000e+00
      outer loop
         vertex -6.350000e-03 -3.469447e-18 3.469447e-18
         vertex -6.350000e-03 -7.192517e-04 9.974100e-03
         vertex -6.350000e-03 9.767252e-04 9.952186e-03
      endloop
   endfacet
   facet normal -1.000000e+00 -2.775558e-16 0.000000e+00
      outer loop
         vertex -6.350000e-03 -3.469447e-18 3.469447e-18
         vertex -6.350000e-03 9.767252e-04 9.952186e-03
         vertex -6.350000e-03 2.644603e-03 9.643965e-03
      endloop
   endfacet
   facet normal -1.000000e+00 -2.775558e-16 0.000000e+00
      outer loop
         vertex -6.350000e-03 -6.825533e-03 7.308358e-03
         vertex -6.350000e-03 -5.492235e-03 8.356755e-03
         vertex -6.350000e-03 -3.469447e-18 3.469447e-18
      endloop
   endfacet
   facet normal -1.000000e+00 -2.775558e-16 0.000000e+00
      outer loop
         vertex -6.350000e-03 -3.469447e-18 3.469447e-18
         vertex -6.350000e-03 -5.492235e-03 8.356755e-03
         vertex -6.350000e-03 -4.000936e-03 9.164742e-03
      endloop
   endfacet
   facet normal -1.000000e+00 -2.775558e-16 4.930381e-32
      outer loop
         vertex -6.350000e-03 -3.469447e-18 3.469447e-18
         vertex -6.350000e-03 -4.000936e-03 9.164742e-03
         vertex -6.350000e-03 -2.394537e-03 9.709077e-03
      endloop
   endfacet
   facet normal -1.000000e+00 -2.775558e-16 0.000000e+00
      outer loop
         vertex -6.350000e-03 -9.523036e-03 3.051522e-03
         vertex -6.350000e-03 -8.870346e-03 4.617030e-03
         vertex -6.350000e-03 -3.469447e-18 3.469447e-18
      endloop
   endfacet
   facet normal -1.000000e+00 -2.775558e-16 0.000000e+00
      outer loop
         vertex -6.350000e-03 -3.469447e-18 3.469447e-18
         vertex -6.350000e-03 -8.870346e-03 4.617030e-03
         vertex -6.350000e-03 -7.962472e-03 6.049714e-03
      endloop
   endfacet
   facet normal -1.000000e+00 -2.775558e-16 0.000000e+00
      outer loop
         vertex -6.350000e-03 -3.469447e-18 3.469447e-18
         vertex -6.350000e-03 -7.962472e-03 6.049714e-03
         vertex -6.350000e-03 -6.825533e-03 7.308358e-03
      endloop
   endfacet
endsolid