solid Gripper - GripperBase-1
   facet normal -3.608225e-16 0.000000e+00 1.000000e+00
      outer loop
         vertex 7.000000e-03 9.000000e-03 2.500000e-02
         vertex 7.000000e-03 -9.000000e-03 2.500000e-02
         vertex 2.100000e-02 9.000000e-03 2.500000e-02
      endloop
   endfacet
   facet normal -3.608225e-16 0.000000e+00 1.000000e+00
      outer loop
         vertex 2.100000e-02 9.000000e-03 2.500000e-02
         vertex 7.000000e-03 -9.000000e-03 2.500000e-02
         vertex 2.100000e-02 -9.000000e-03 2.500000e-02
      endloop
   endfacet
   facet normal 0.000000e+00 1.000000e+00 0.000000e+00
      outer loop
         vertex 7.000000e-03 9.000000e-03 -2.500000e-02
         vertex 7.000000e-03 9.000000e-03 2.500000e-02
         vertex 2.100000e-02 9.000000e-03 -2.500000e-02
      endloop
   endfacet
   facet normal -0.000000e+00 1.000000e+00 0.000000e+00
      outer loop
         vertex 2.100000e-02 9.000000e-03 -2.500000e-02
         vertex 7.000000e-03 9.000000e-03 2.500000e-02
         vertex 2.100000e-02 9.000000e-03 2.500000e-02
      endloop
   endfacet
   facet normal 3.608225e-16 0.000000e+00 -1.000000e+00
      outer loop
         vertex 7.000000e-03 -9.000000e-03 -2.500000e-02
         vertex 7.000000e-03 9.000000e-03 -2.500000e-02
         vertex 2.100000e-02 -9.000000e-03 -2.500000e-02
      endloop
   endfacet
   facet normal 3.608225e-16 0.000000e+00 -1.000000e+00
      outer loop
         vertex 2.100000e-02 -9.000000e-03 -2.500000e-02
         vertex 7.000000e-03 9.000000e-03 -2.500000e-02
         vertex 2.100000e-02 9.000000e-03 -2.500000e-02
      endloop
   endfacet
   facet normal 0.000000e+00 -1.000000e+00 0.000000e+00
      outer loop
         vertex 7.000000e-03 -9.000000e-03 2.500000e-02
         vertex 7.000000e-03 -9.000000e-03 -2.500000e-02
         vertex 2.100000e-02 -9.000000e-03 2.500000e-02
      endloop
   endfacet
   facet normal 0.000000e+00 -1.000000e+00 0.000000e+00
      outer loop
         vertex 2.100000e-02 -9.000000e-03 2.500000e-02
         vertex 7.000000e-03 -9.000000e-03 -2.500000e-02
         vertex 2.100000e-02 -9.000000e-03 -2.500000e-02
      endloop
   endfacet
   facet normal -1.000000e+00 0.000000e+00 -3.608225e-16
      outer loop
         vertex 7.000000e-03 9.000000e-03 -2.500000e-02
         vertex 7.000000e-03 -9.000000e-03 -2.500000e-02
         vertex 7.000000e-03 9.000000e-03 2.500000e-02
      endloop
   endfacet
   facet normal -1.000000e+00 0.000000e+00 -3.608225e-16
      outer loop
         vertex 7.000000e-03 9.000000e-03 2.500000e-02
         vertex 7.000000e-03 -9.000000e-03 -2.500000e-02
         vertex 7.000000e-03 -9.000000e-03 2.500000e-02
      endloop
   endfacet
   facet normal 1.000000e+00 0.000000e+00 3.608225e-16
      outer loop
         vertex 2.100000e-02 -9.000000e-03 -2.500000e-02
         vertex 2.100000e-02 9.000000e-03 -2.500000e-02
         vertex 2.100000e-02 -9.000000e-03 2.500000e-02
      endloop
   endfacet
   facet normal 1.000000e+00 0.000000e+00 3.608225e-16
      outer loop
         vertex 2.100000e-02 -9.000000e-03 2.500000e-02
         vertex 2.100000e-02 9.000000e-03 -2.500000e-02
         vertex 2.100000e-02 9.000000e-03 2.500000e-02
      endloop
   endfacet
endsolid